<svg width="256" height="256" viewBox="0 0 256 256" xmlns="http://www.w3.org/2000/svg" role="img" aria-labelledby="title desc">
  <title id="title">Parties247 Logo Icon</title>
  <desc id="desc">Rounded badge with stylized 24/7 text in brand-inspired colors.</desc>
  <defs>
    <linearGradient id="bg" x1="0%" y1="0%" x2="100%" y2="100%">
      <stop offset="0%" stop-color="#35c98f" />
      <stop offset="100%" stop-color="#118a66" />
    </linearGradient>
  </defs>
  <rect x="12" y="12" width="232" height="232" rx="64" fill="url(#bg)" />
  <path d="M86 174c-12 0-22-4-30-12l14-16c6 6 12 9 19 9 7 0 11-3 11-8 0-5-4-7-13-8-9-1-16-3-22-7-6-4-9-10-9-19 0-9 3-16 10-21 6-5 14-8 23-8 11 0 21 4 29 11l-12 17c-7-5-13-8-19-8-6 0-9 2-9 6 0 4 4 7 12 8 9 1 16 3 22 7 7 4 10 10 10 20 0 9-3 16-10 22-7 5-15 8-26 8Z" fill="#fefefe"/>
  <path d="M152 174h-25l35-42c7-8 10-14 10-18 0-5-4-8-10-8-6 0-12 3-20 9l-12-17c12-9 24-13 36-13 11 0 19 3 26 8 6 5 9 12 9 20 0 9-5 19-16 31l-11 12h29v18h-51Z" fill="#fefefe"/>
  <path d="M207 191c-6 0-11-2-15-6-4-3-6-8-6-14s2-11 6-14c4-4 9-6 15-6 7 0 12 2 16 6 3 3 5 7 5 14 0 6-2 11-5 14-4 4-9 6-16 6Zm0-15c3 0 5-2 5-5s-2-5-5-5c-3 0-5 2-5 5s2 5 5 5Z" fill="#0f5132"/>
  <path d="M215 150h-18l22-34c3-5 5-9 5-11 0-4-3-6-7-6-4 0-9 2-14 6l-7-14c8-6 16-9 25-9 8 0 14 2 18 6 4 3 6 8 6 14 0 6-2 12-7 20l-6 9h15v19h-32Z" fill="#0f5132"/>
</svg>
