<svg width="320" height="320" viewBox="0 0 320 320" fill="none" xmlns="http://www.w3.org/2000/svg">
  <defs>
    <linearGradient id="leafRightGradient" x1="280" y1="20" x2="60" y2="310" gradientUnits="userSpaceOnUse">
      <stop stop-color="#1FAA90" />
      <stop offset="0.45" stop-color="#0F7C63" />
      <stop offset="1" stop-color="#06372A" />
    </linearGradient>
    <filter id="blurR" x="-20" y="-20" width="360" height="360" filterUnits="userSpaceOnUse">
      <feGaussianBlur in="SourceGraphic" stdDeviation="4" />
    </filter>
  </defs>
  <path d="M280 280C280 280 284 196 242 132C200 68 110 32 60 20C60 20 80 80 98 124C124 188 184 254 280 280Z" fill="url(#leafRightGradient)" filter="url(#blurR)" opacity="0.9"/>
  <path d="M256 248C200 212 144 140 114 88" stroke="#9EEBC8" stroke-width="6" stroke-linecap="round" opacity="0.4"/>
  <path d="M224 204C190 192 150 150 128 116" stroke="#CFF9E4" stroke-width="4" stroke-linecap="round" opacity="0.35"/>
  <path d="M200 176C172 164 142 134 126 108" stroke="#CFF9E4" stroke-width="3" stroke-linecap="round" opacity="0.3"/>
</svg>
