<?xml version="1.0" encoding="UTF-8"?>
<svg version="1.1" xmlns="http://www.w3.org/2000/svg" width="900" height="900">
<path d="M0 0 C7.92 0.33 15.84 0.66 24 1 C22.73207718 7.97357552 21.41906271 14.81114774 19.74609375 21.6796875 C19.42371986 23.01747757 19.42371986 23.01747757 19.09483337 24.3822937 C18.40059771 27.25586055 17.70097277 30.12806964 17 33 C16.76468567 33.96667603 16.52937134 34.93335205 16.28692627 35.92932129 C14.81412451 41.97259009 13.32568075 48.01182617 11.82543945 54.04833984 C11.31607998 56.10240321 10.80925054 58.15709559 10.30493164 60.21240234 C7.5283985 71.5247353 4.7111402 82.74601105 0.79750061 93.72915649 C-1.35033278 100.04361485 -1.18129112 105.18515623 -0.13671875 111.80078125 C0.03058962 115.71579715 -1.12152409 117.61325876 -3 121 C-3.95411204 124.68833418 -4.24339805 128.4005848 -4.55366516 132.19035339 C-5.773671 146.94790554 -7.97297152 161.56917703 -10.14868164 176.20874023 C-10.70068351 179.92374421 -11.24265564 183.64013075 -11.78198433 187.35699272 C-14.39660488 205.33933153 -17.35875456 223.19116051 -21 241 C-19.92500244 241.26619141 -18.85000488 241.53238281 -17.74243164 241.80664062 C-8.46721295 244.10625211 0.77454709 246.50806732 10 249 C10.97673135 252.06954333 10.99596313 253.95247471 10.1015625 257.03515625 C9.87339844 257.83187744 9.64523437 258.62859863 9.41015625 259.44946289 C9.15105469 260.31176514 8.89195312 261.17406738 8.625 262.0625 C8.36332031 262.96411865 8.10164063 263.8657373 7.83203125 264.79467773 C6.195685 270.32808717 4.40565603 275.79546649 2.5234375 281.25 C2.10626465 282.46421631 1.6890918 283.67843262 1.25927734 284.92944336 C0.42770839 287.32854721 -0.41807339 289.72277736 -1.27880859 292.11157227 C-1.66117676 293.21041748 -2.04354492 294.3092627 -2.4375 295.44140625 C-2.78683594 296.41795166 -3.13617188 297.39449707 -3.49609375 298.40063477 C-4.21538301 300.96041318 -4.21538301 300.96041318 -3.25585938 303.18847656 C-1.35458719 305.93098038 1.01338557 307.97245004 3.5 310.1875 C4.96953125 311.50814453 4.96953125 311.50814453 6.46875 312.85546875 C8.78979395 314.99362872 8.78979395 314.99362872 11 316 C11 316.66 11 317.32 11 318 C12.32 318.66 13.64 319.32 15 320 C15 320.99 15 321.98 15 323 C7.52479005 321.16183362 0.23518583 318.80921408 -7.0625 316.375 C-8.00311279 316.06167725 -8.94372559 315.74835449 -9.9128418 315.42553711 C-16.73020126 313.13489937 -16.73020126 313.13489937 -19 312 C-19.31654168 303.67801704 -17.83701197 295.71867462 -16.50976562 287.52539062 C-15.16720605 278.93789135 -14.58413801 270.76207015 -14 262 C-24.23 262 -34.46 262 -45 262 C-45.639375 265.939375 -46.27875 269.87875 -46.9375 273.9375 C-47.13722412 275.16073975 -47.33694824 276.38397949 -47.54272461 277.64428711 C-50.70769061 297.2893985 -51.17767439 315.34337753 -46.69091797 334.875 C-46.46162598 335.87789062 -46.23233398 336.88078125 -45.99609375 337.9140625 C-45.78138428 338.8004541 -45.5666748 339.6868457 -45.34545898 340.60009766 C-44.37399289 347.3488692 -49.46047116 352.68743545 -53 358 C-53.38881348 358.58716797 -53.77762695 359.17433594 -54.17822266 359.77929688 C-55.38055115 361.58834032 -56.59427415 363.38913122 -57.8125 365.1875 C-58.38967773 366.05266235 -58.38967773 366.05266235 -58.97851562 366.93530273 C-59.93391556 368.32718517 -60.96118413 369.66921552 -62 371 C-62.66 371 -63.32 371 -64 371 C-64.18425422 365.10386497 -63.28956441 359.71308671 -62.06640625 353.9609375 C-60.47812929 346.12543781 -61.04956269 339.79554004 -63.08203125 332.19921875 C-63.29687668 331.36397171 -63.51172211 330.52872467 -63.733078 329.66816711 C-64.41826944 327.0058085 -65.11408356 324.3464176 -65.8125 321.6875 C-71.36869781 300.51643647 -74.54694312 281.95122872 -73.4375 260 C-73.33737846 257.74557902 -73.23854236 255.49110065 -73.14086914 253.23657227 C-72.79522611 245.4892463 -72.40131581 237.74459397 -72 230 C-71.96146912 229.2530764 -71.92293823 228.5061528 -71.88323975 227.73659515 C-70.96786106 209.99240738 -70.01651582 192.25029432 -69.02684402 174.5100975 C-68.68280313 168.34016253 -68.34126261 162.17008919 -68 156 C-67.94065277 154.93328064 -67.88130554 153.86656128 -67.82015991 152.76751709 C-67.26763297 142.75258706 -66.85145439 132.78424151 -66.9375 122.75 C-66.94201172 121.69554687 -66.94652344 120.64109375 -66.95117188 119.5546875 C-66.96261869 117.03638823 -66.97880824 114.51823256 -67 112 C-68.98 112 -70.96 112 -73 112 C-73.88099735 109.02181366 -74.06705164 106.54707135 -73.87890625 103.453125 C-73.83056641 102.60878906 -73.78222656 101.76445312 -73.73242188 100.89453125 C-73.67634766 100.02183594 -73.62027344 99.14914062 -73.5625 98.25 C-73.48418945 96.91775391 -73.48418945 96.91775391 -73.40429688 95.55859375 C-73.27498267 93.37200804 -73.14003358 91.18592106 -73 89 C-74.14065918 89.13164551 -75.28131836 89.26329102 -76.45654297 89.39892578 C-80.67832609 89.88325595 -84.90160271 90.35324042 -89.12548828 90.81884766 C-90.95535726 91.02259972 -92.78479435 91.23026948 -94.61376953 91.44189453 C-97.23887824 91.74495586 -99.86520465 92.03401351 -102.4921875 92.3203125 C-103.31306854 92.41813019 -104.13394958 92.51594788 -104.97970581 92.61672974 C-106.97943879 92.82766689 -108.99060155 92.92420852 -111 93 C-114.6741243 89.3258757 -114.34817857 83.54975554 -115 78.5625 C-115.27650391 76.85416992 -115.27650391 76.85416992 -115.55859375 75.11132812 C-116.5114753 67.72860428 -115.92287287 63.39722042 -111.95605469 57.11108398 C-109.56470558 53.3076689 -107.56300622 49.36682044 -105.5390625 45.359375 C-104.72979753 43.77702095 -103.91989128 42.19499472 -103.109375 40.61328125 C-102.28109546 38.99226645 -101.452971 37.37117241 -100.625 35.75 C-99.80485288 34.14444676 -98.98454123 32.53897755 -98.1640625 30.93359375 C-97.76076721 30.14444077 -97.35747192 29.35528778 -96.94195557 28.54222107 C-95.74068518 26.19941806 -94.53035627 23.86145633 -93.31933594 21.52368164 C-91.78120189 18.54872849 -90.29524254 15.55543324 -88.84472656 12.53686523 C-88.16481251 11.16385073 -87.48480445 9.79088276 -86.8046875 8.41796875 C-86.51469879 7.78683167 -86.22471008 7.15569458 -85.92593384 6.50543213 C-84.3452811 3.37308418 -83.35064324 2.13605884 -80.04345703 0.8527832 C-76.5 0.5625 -76.5 0.5625 -68 1 C-60.08 1 -52.16 1 -44 1 C-44 19.81 -44 38.62 -44 58 C-39.05 57.67 -34.1 57.34 -29 57 C-28.97292737 60.37505428 -28.95312551 63.7498894 -28.9375 67.125 C-28.92912109 68.07632813 -28.92074219 69.02765625 -28.91210938 70.0078125 C-28.89550392 74.79018487 -28.99462945 79.29771569 -30 84 C-34 85 -34 85 -44 85 C-44 93.25 -44 101.5 -44 110 C-46.97 110 -49.94 110 -53 110 C-51.68 126.17 -50.36 142.34 -49 159 C-47.68 156.36 -46.36 153.72 -45 151 C-41.41806812 148.88340389 -38.79415301 148.82461568 -34.8125 149.5625 C-32.05222445 150.40694376 -31.06330788 150.93471375 -29 153.0625 C-28.02775526 155.91846893 -27.89448697 157.71300671 -27.9375 160.68359375 C-27.94652344 161.4923999 -27.95554687 162.30120605 -27.96484375 163.13452148 C-27.97644531 163.75012939 -27.98804688 164.3657373 -28 165 C-21.66416103 146.72449436 -16.31703642 130.47710938 -17 111 C-19.97 110.34 -22.94 109.68 -26 109 C-25.05236249 103.00245206 -23.82500353 97.14716835 -22.22265625 91.2890625 C-19.76335705 82.2003915 -17.4689559 73.07218723 -15.1875 63.9375 C-14.971008 63.07192474 -14.75451599 62.20634949 -14.53146362 61.31454468 C-10.5169057 45.24764779 -6.69934427 29.14237208 -3 13 C-2.00108192 8.66641645 -1.00043638 4.33323339 0 0 Z M-69 30 C-70.52127126 32.16665907 -71.98928426 34.34748584 -73.4375 36.5625 C-74.33965419 37.93111455 -75.24200394 39.29960022 -76.14453125 40.66796875 C-76.61197754 41.37872559 -77.07942383 42.08948242 -77.56103516 42.82177734 C-78.99248787 44.98862857 -80.43697622 47.1461316 -81.88671875 49.30078125 C-82.34570557 49.98390381 -82.80469238 50.66702637 -83.27758789 51.37084961 C-84.1673034 52.69421881 -85.05839055 54.01666699 -85.95092773 55.33813477 C-88.06193283 57.95922238 -88.06193283 57.95922238 -89 61 C-86.2291017 61.02696009 -83.4584655 61.04681952 -80.6875 61.0625 C-79.90181641 61.07087891 -79.11613281 61.07925781 -78.30664062 61.08789062 C-77.1706543 61.09272461 -77.1706543 61.09272461 -76.01171875 61.09765625 C-74.96697388 61.10551147 -74.96697388 61.10551147 -73.90112305 61.11352539 C-71.77502032 61.06895991 -71.77502032 61.06895991 -69 60 C-67.86044138 53.67410373 -67.8857363 47.47721662 -67.9375 41.0625 C-67.94201172 39.99708984 -67.94652344 38.93167969 -67.95117188 37.83398438 C-67.96288213 35.22259709 -67.97928276 32.61132876 -68 30 C-68.33 30 -68.66 30 -69 30 Z " fill="#FFFFFF" transform="translate(501,336)"/>
<path d="M0 0 C0.8295324 3.11074649 1.01839361 5.92440144 0.9296875 9.11328125 C0.89881663 16.88712721 1.81310027 24.59131446 2.625 32.3125 C2.71136719 33.14504303 2.79773438 33.97758606 2.88671875 34.83535767 C4.37957918 49.14650053 6.12534743 63.42171559 8 77.6875 C8.11933899 78.61019684 8.23867798 79.53289368 8.3616333 80.48355103 C8.71253924 83.18152809 9.07346958 85.87798415 9.4375 88.57421875 C9.5354184 89.33157318 9.63333679 90.08892761 9.73422241 90.86923218 C11.04455334 100.35541662 13.11244814 109.56224071 15 119 C15.33 81.38 15.66 43.76 16 5 C28.52660769 1.42096923 45.8306855 -2.03105167 58.75 2.1875 C63.20179093 4.67022956 65.22217692 7.02595802 67.08203125 11.74609375 C71.02522016 25.72343997 67.31043521 46.08464261 61 59 C58.70481281 62.90181822 56.22975741 66.58866767 53.25390625 70.00390625 C51.80066687 71.88267252 51.80066687 71.88267252 52.1328125 73.94140625 C56.06655985 83.27962632 63.09144607 90.86799484 69.65429688 98.42773438 C72.87871661 102.19501723 75.9317628 106.1053608 79 110 C77.36091132 114.4648479 75.4987982 116.73445501 72 120 C70.72520566 121.26685994 69.4544804 122.53782538 68.1875 123.8125 C67.125 124.875 66.0625 125.9375 65 127 C60.84631398 125.47263563 59.2687417 122.87152804 56.875 119.25 C56.08698923 118.07611622 55.29788626 116.90296504 54.5078125 115.73046875 C54.09950195 115.11993652 53.69119141 114.5094043 53.27050781 113.88037109 C51.14758266 110.73840923 48.95178381 107.64948568 46.75 104.5625 C46.35022949 103.9962793 45.95045898 103.43005859 45.53857422 102.84667969 C42.8511106 99.07421523 40.0477676 95.48391366 37 92 C36.67 92 36.34 92 36 92 C36.06058594 92.56807373 36.12117188 93.13614746 36.18359375 93.72143555 C36.46266613 96.37611157 36.73133912 99.03175086 37 101.6875 C37.09539062 102.58017578 37.19078125 103.47285156 37.2890625 104.39257812 C38.0082 111.60963661 38.10419345 118.75059585 38 126 C37.1435791 126.11069824 36.2871582 126.22139648 35.40478516 126.33544922 C32.18013734 126.75393491 28.95591403 127.17552693 25.73193359 127.59912109 C24.34537348 127.78067531 22.95865781 127.96104609 21.57177734 128.14013672 C14.37041799 129.07085392 7.21238875 130.01958065 0.12646484 131.63720703 C-2 132 -2 132 -7 132 C-7.66 122.1 -8.32 112.2 -9 102 C-12.63 103.65 -16.26 105.3 -20 107 C-20.99 107 -21.98 107 -23 107 C-22.98839844 108.03898437 -22.97679687 109.07796875 -22.96484375 110.1484375 C-22.83605614 126.6629723 -22.83605614 126.6629723 -24 133 C-25.72516449 134.72516449 -28.08042149 134.37333319 -30.4375 134.5625 C-31.42621094 134.64628906 -32.41492188 134.73007812 -33.43359375 134.81640625 C-37.95893519 135.04936468 -42.46986291 135.03560806 -47 135 C-46.82984375 133.83210937 -46.6596875 132.66421875 -46.484375 131.4609375 C-44.75288522 119.49736448 -43.1183143 107.52253596 -41.53417969 95.53857422 C-41.37852539 94.36182129 -41.22287109 93.18506836 -41.0625 91.97265625 C-40.89878906 90.72484375 -40.73507812 89.47703125 -40.56640625 88.19140625 C-40.16020415 85.13825559 -39.72405481 82.09044677 -39.27734375 79.04296875 C-37.09197603 63.94525265 -35.84695785 48.84413629 -34.77050781 33.63183594 C-33.11402399 10.48998811 -33.11402399 10.48998811 -30 1 C-26.1250877 0.83125237 -22.25005773 0.66537155 -18.375 0.5 C-16.73337891 0.42845703 -16.73337891 0.42845703 -15.05859375 0.35546875 C-13.99511719 0.31035156 -12.93164062 0.26523438 -11.8359375 0.21875 C-10.86188965 0.17685547 -9.8878418 0.13496094 -8.88427734 0.09179688 C-5.9208325 -0.00251964 -2.96473674 -0.01538125 0 0 Z M36 27 C35.67 35.58 35.34 44.16 35 53 C40.30076254 50.87969498 42.48352889 49.03294222 45 44 C45.40992722 39.10452302 45.54904518 34.52512549 43.875 29.875 C41.71906821 27.35579434 41.71906821 27.35579434 36 27 Z M-16 41 C-17.32 53.21 -18.64 65.42 -20 78 C-17.03 77.34 -14.06 76.68 -11 76 C-11.4486025 67.33488852 -12.04872946 58.69453164 -12.9375 50.0625 C-13.01210449 49.27568848 -13.08670898 48.48887695 -13.16357422 47.67822266 C-13.369486 45.77617044 -13.67550814 43.88544619 -14 42 C-14.66 41.67 -15.32 41.34 -16 41 Z " fill="#FFFFFF" transform="translate(380,194)"/>
<path d="M0 0 C5.17288368 4.95328013 6.16342616 9.96233307 6.41186523 16.91357422 C6.66865766 37.81403241 -2.62397004 52.77406082 -16.875 67.4375 C-19.08984375 69.66796875 -19.08984375 69.66796875 -20.9375 71.25 C-21.5975 71.25 -22.2575 71.25 -22.9375 71.25 C-23.5975 72.9 -24.2575 74.55 -24.9375 76.25 C-23.9475 75.92 -22.9575 75.59 -21.9375 75.25 C-18.07493037 74.75372677 -14.19223978 74.457683 -10.3125 74.125 C-9.23742187 74.02574219 -8.16234375 73.92648437 -7.0546875 73.82421875 C-6.03375 73.73527344 -5.0128125 73.64632812 -3.9609375 73.5546875 C-3.02169434 73.47202637 -2.08245117 73.38936523 -1.11474609 73.30419922 C-0.39625488 73.28631348 0.32223633 73.26842773 1.0625 73.25 C4.70688317 76.89438317 3.11933695 87.48844804 3.13061523 92.45922852 C3.12246482 96.05639479 3.09811391 99.6529954 3.0625 103.25 C-0.80614364 104.47775444 -4.70703148 104.47412082 -8.7265625 104.56640625 C-9.49498474 104.58723267 -10.26340698 104.60805908 -11.05511475 104.6295166 C-13.55747774 104.69549227 -16.05994359 104.75435992 -18.5625 104.8125 C-19.41032043 104.83367889 -20.25814087 104.85485779 -21.13165283 104.87667847 C-35.73526715 105.24143221 -50.32914697 105.37996755 -64.9375 105.25 C-67.31687686 82.69594772 -67.31687686 82.69594772 -63.578125 75.70996094 C-60.24568842 71.62885196 -56.22653923 68.63477306 -51.89941406 65.6784668 C-41.90021708 58.39806591 -30.76675237 45.07625456 -26.9375 33.25 C-26.78552126 30.56471585 -26.78552126 30.56471585 -26.9375 28.25 C-38.3063584 27.59689537 -46.21530389 29.97568845 -54.9375 37.25 C-56.38844378 38.38451455 -57.84665855 39.50980048 -59.3125 40.625 C-59.95960938 41.12773437 -60.60671875 41.63046875 -61.2734375 42.1484375 C-62.9375 43.25 -62.9375 43.25 -64.9375 43.25 C-67.32526806 17.2798471 -67.32526806 17.2798471 -66.9375 6.25 C-47.23237998 -5.03763301 -20.48315699 -15.39391264 0 0 Z " fill="#FFFFFF" transform="translate(376.9375,344.75)"/>
<path d="M0 0 C35.69149344 -0.7816303 35.69149344 -0.7816303 46 7 C57.03121157 18.00717843 56.19218642 34.19797253 56.25 48.6875 C56.270625 49.96044922 56.29125 51.23339844 56.3125 52.54492188 C56.35978582 64.17132311 55.91110221 76.71932014 47.5390625 85.5390625 C40.53058298 92.21850542 32.27877096 93.9380509 23 96 C23.33 110.52 23.66 125.04 24 140 C8 142 8 142 0 142 C-1.14393673 135.6209861 -1.14100315 129.358093 -1.12939453 122.8894043 C-1.13114685 121.68524872 -1.13289917 120.48109314 -1.13470459 119.240448 C-1.13834054 115.95309211 -1.13750345 112.66577679 -1.1343255 109.37842155 C-1.131782 105.92511651 -1.13414513 102.47181406 -1.13571167 99.01850891 C-1.1375283 93.21749388 -1.13514111 87.41649161 -1.13037109 81.61547852 C-1.12493715 74.93029082 -1.12668686 68.24513366 -1.1321975 61.55994672 C-1.13675228 55.8017325 -1.13736741 50.04352743 -1.13475883 44.285312 C-1.13320804 40.85448095 -1.13296903 37.42366419 -1.13629532 33.99283409 C-1.13884676 30.16146179 -1.13494581 26.33014731 -1.12939453 22.4987793 C-1.13141876 21.37688705 -1.13344299 20.25499481 -1.13552856 19.09910583 C-1.11835682 12.6720908 -0.7818277 6.38047999 0 0 Z M22 30 C20.59374449 31.17829585 20.59374449 31.17829585 20.88647461 34.51000977 C20.88663374 36.07048422 20.89232858 37.63096393 20.90234375 39.19140625 C20.9037587 40.01124496 20.90517365 40.83108368 20.90663147 41.67576599 C20.91224711 44.30471382 20.92480221 46.93357773 20.9375 49.5625 C20.94251299 51.34049357 20.94707624 53.11848846 20.95117188 54.89648438 C20.96222161 59.26435545 20.97949669 63.63216348 21 68 C25.55067837 67.20245843 29.35965327 65.91407066 33 63 C37.21623597 56.80740342 36.2969534 50.1464779 35 43 C33.2905871 37.66124248 30.83110952 34.01944345 26 31 C23.87053397 30.13034494 23.87053397 30.13034494 22 30 Z " fill="#FFFFFF" transform="translate(285,196)"/>
<path d="M0 0 C0.99 12.87 1.98 25.74 3 39 C-1.29 41.31 -5.58 43.62 -10 46 C-15.25179618 51.25179618 -17.1396593 54.50242871 -17.25 61.8125 C-17.27578125 62.82957031 -17.3015625 63.84664063 -17.328125 64.89453125 C-16.58349092 71.94196091 -12.03920245 76.57255093 -7.625 81.75 C-0.42815817 90.46442164 4.85169799 97.21695321 4.29296875 108.98046875 C3.30569232 119.15599781 1.86242919 127.69868208 -5.875 134.875 C-9.15156742 137.52516483 -11.80705073 139.16141015 -16 140 C-16.64710938 140.14308594 -17.29421875 140.28617188 -17.9609375 140.43359375 C-28.05740698 142.10485235 -39.60226083 139.75909567 -49 136 C-48.34 127.09 -47.68 118.18 -47 109 C-43 110 -43 110 -42 111 C-35.46030223 112.40136381 -31.14494384 111.51772005 -25 109 C-24.40590135 101.51435698 -25.50338843 97.04051254 -30 91 C-32.25860989 88.46678709 -34.55516384 85.98748462 -36.8972168 83.53222656 C-45.33676373 74.56565671 -48.49706608 66.44225686 -48.27734375 54.2734375 C-48.00143464 48.12107622 -46.29864478 42.68536279 -44 37 C-43.39865234 35.48986328 -43.39865234 35.48986328 -42.78515625 33.94921875 C-35.62871843 17.95613596 -22.44797193 8.24888343 -6.8828125 1.06640625 C-4 0 -4 0 0 0 Z " fill="#FFFFFF" transform="translate(620,195)"/>
<path d="M0 0 C1.09917077 4.34116939 1.04602521 8.48802432 0.87890625 12.92578125 C0.84348976 14.04716743 0.84348976 14.04716743 0.80735779 15.19120789 C0.7311443 17.56518574 0.64693985 19.93880193 0.5625 22.3125 C0.50923685 23.92771702 0.45649678 25.54295139 0.40429688 27.15820312 C0.27656381 31.10576295 0.13801633 35.05273287 0 39 C-6.27 39.33 -12.54 39.66 -19 40 C-19 45.94 -19 51.88 -19 58 C-13.39 58 -7.78 58 -2 58 C-2 65.59 -2 73.18 -2 81 C-7.28 81 -12.56 81 -18 81 C-17.34 86.28 -16.68 91.56 -16 97 C-9.73 97.33 -3.46 97.66 3 98 C3.24512057 110.13346818 2.3102777 121.94091495 1 134 C-7.72555386 134.15323921 -16.36087198 133.67935749 -25.0625 133.0625 C-27.03766602 132.93198242 -27.03766602 132.93198242 -29.05273438 132.79882812 C-30.9312207 132.66831055 -30.9312207 132.66831055 -32.84765625 132.53515625 C-33.98211182 132.456604 -35.11656738 132.37805176 -36.28540039 132.29711914 C-39 132 -39 132 -41 131 C-40.37726774 100.87342857 -39.66633773 70.74915763 -38.9375 40.625 C-38.91444038 39.67187801 -38.89138077 38.71875603 -38.86762238 37.73675156 C-38.57933431 25.82447867 -38.29010062 13.91222888 -38 2 C-34.85480326 1.15629838 -32.20149496 0.92308701 -28.9375 1 C-25.09975208 1.04071881 -21.37939545 0.89828474 -17.5625 0.5 C-11.7011012 -0.10138629 -5.88653192 -0.09245862 0 0 Z " fill="#FFFFFF" transform="translate(564,195)"/>
<path d="M0 0 C1.89128128 0.03025772 1.89128128 0.03025772 3.82077026 0.06112671 C5.18146291 0.09342211 6.54215007 0.12594903 7.90283203 0.15869141 C9.30671536 0.1848873 10.71061635 0.21015197 12.11453247 0.23452759 C15.79393007 0.30089718 19.4729523 0.37984925 23.15203857 0.46148682 C26.91257415 0.54268309 30.67332865 0.61189081 34.43408203 0.68212891 C41.80153474 0.82148471 49.16863202 0.97414324 56.53564453 1.13525391 C57.03064453 2.12525391 57.03064453 2.12525391 57.53564453 3.13525391 C56.93408203 4.85009766 56.93408203 4.85009766 55.91064453 7.07275391 C53.57800167 12.6615433 52.08342916 18.32056221 50.5925293 24.17333984 C48.69481063 31.60659903 46.59625515 38.97297952 44.48046875 46.34667969 C42.49736832 53.38345349 40.71021341 60.44875359 39.00439453 67.55712891 C38.78514816 68.4634053 38.56590179 69.3696817 38.3400116 70.30342102 C37.23619589 74.8663492 36.14866543 79.43205589 35.08764648 84.00512695 C34.68174955 85.69321677 34.27512567 87.381132 33.86767578 89.06884766 C33.69179932 89.85414856 33.51592285 90.63944946 33.3347168 91.44854736 C32.03564278 96.72249906 32.03564278 96.72249906 29.76147461 98.59985352 C27.01883566 99.25956693 24.40693363 99.57075251 21.59033203 99.76806641 C20.43017578 99.85185547 19.27001953 99.93564453 18.07470703 100.02197266 C16.86556641 100.10060547 15.65642578 100.17923828 14.41064453 100.26025391 C13.22470703 100.34662109 12.03876953 100.43298828 10.81689453 100.52197266 C4.0451065 100.99285858 -2.6766335 101.25809978 -9.46435547 101.13525391 C-7.36035559 94.32469096 -4.69659452 87.88236 -1.77685547 81.38525391 C-0.80685303 79.20482106 0.16180547 77.02379003 1.12939453 74.84228516 C1.66306641 73.63910645 2.19673828 72.43592773 2.74658203 71.19628906 C6.28882814 63.17703745 9.74841236 55.12141456 13.22314453 47.07275391 C13.94993384 45.39012923 14.67674012 43.70751189 15.40356445 42.02490234 C17.11508798 38.06204412 18.82565636 34.09877487 20.53564453 30.13525391 C12.0478272 29.95546212 3.74965639 30.67303593 -4.68896484 31.51220703 C-5.67832031 31.60566406 -6.66767578 31.69912109 -7.68701172 31.79541016 C-8.58170166 31.88443604 -9.4763916 31.97346191 -10.39819336 32.06518555 C-11.08002686 32.08830811 -11.76186035 32.11143066 -12.46435547 32.13525391 C-13.46435547 31.13525391 -13.46435547 31.13525391 -13.59716797 28.50244141 C-13.57740186 19.66699003 -13.15513304 10.942668 -12.46435547 2.13525391 C-8.12720688 0.47865842 -4.63224989 -0.09301707 0 0 Z " fill="#FFFFFF" transform="translate(541.46435546875,344.86474609375)"/>
<path d="M0 0 C0.68185364 -0.00095673 1.36370728 -0.00191345 2.06622314 -0.00289917 C3.5050872 -0.00357728 4.94395438 -0.00174882 6.3828125 0.00244141 C8.55736377 0.00776171 10.73170537 0.00250107 12.90625 -0.00390625 C19.94326228 -0.00693475 26.8464788 0.14661584 33.828125 1.1328125 C33.96810956 9.37634781 33.74352911 17.5849904 33.390625 25.8203125 C33.35138916 26.80080566 33.31215332 27.78129883 33.27172852 28.79150391 C33.22975342 29.71237793 33.18777832 30.63325195 33.14453125 31.58203125 C33.10787354 32.41049561 33.07121582 33.23895996 33.03344727 34.0925293 C32.828125 36.1328125 32.828125 36.1328125 31.828125 38.1328125 C27.208125 38.1328125 22.588125 38.1328125 17.828125 38.1328125 C18.21374938 45.8112971 18.60464862 53.48949054 19 61.16748047 C19.13321199 63.76799628 19.26509428 66.36858063 19.39550781 68.96923828 C20.11011278 83.20087105 20.90803445 97.40583561 22.19955444 111.59838867 C22.28146027 112.50693604 22.36336609 113.4154834 22.44775391 114.3515625 C22.55792343 115.5262207 22.55792343 115.5262207 22.6703186 116.72460938 C22.85361734 119.5218381 22.828125 122.32958455 22.828125 125.1328125 C10.453125 126.1228125 10.453125 126.1228125 -2.171875 127.1328125 C-2.34933097 81.09284735 -2.34933097 81.09284735 -1.734375 61.2578125 C-1.69513916 59.94369385 -1.65590332 58.6295752 -1.61547852 57.27563477 C-1.39424206 50.84449046 -0.9921598 44.51586901 -0.171875 38.1328125 C-1.01492188 38.37837891 -1.01492188 38.37837891 -1.875 38.62890625 C-4.30246556 39.16146247 -6.44077181 39.23179931 -8.921875 39.1953125 C-9.72109375 39.18628906 -10.5203125 39.17726562 -11.34375 39.16796875 C-11.94703125 39.15636719 -12.5503125 39.14476562 -13.171875 39.1328125 C-13.29995446 26.42448387 -12.96729127 13.81686131 -12.171875 1.1328125 C-8.06528458 0.1486772 -4.21703923 0.00378355 0 0 Z " fill="#FFFFFF" transform="translate(464.171875,195.8671875)"/>
<path d="M0 0 C5.61 0 11.22 0 17 0 C17.10682223 13.75632944 17.00299566 27.46985047 16.53125 41.21875 C15.97494723 58.25167035 15.6955887 75.28456822 15.46777344 92.32458496 C15.41605132 96.14805872 15.36118101 99.97148747 15.30664062 103.79492188 C15.20148934 111.19657634 15.09988013 118.59827218 15 126 C8.07 126 1.14 126 -6 126 C-6.08445505 117.11886442 -5.82871397 108.31112492 -5.28969574 99.44884872 C-5.15577907 97.2443504 -5.02679568 95.03960778 -4.89898682 92.83474731 C-4.71659484 89.69291346 -4.53265175 86.55117722 -4.34732056 83.40951538 C-2.96823331 59.98862403 -1.59723568 36.58493285 -1.24047852 13.12133789 C-1.22328766 12.08322464 -1.22328766 12.08322464 -1.20574951 11.0241394 C-1.17840499 9.24493532 -1.15966844 7.46560424 -1.1418457 5.6862793 C-1 3 -1 3 0 0 Z " fill="#FFFFFF" transform="translate(503,197)"/>
<path d="M0 0 C0.66 0 1.32 0 2 0 C2 46.86 2 93.72 2 142 C1.01 142 0.02 142 -1 142 C-0.9690625 140.576875 -0.9690625 140.576875 -0.9375 139.125 C-0.77448174 136.09333717 -0.77448174 136.09333717 -2 134 C-1.9036523 131.81236331 -1.74395548 129.62753867 -1.5625 127.4453125 C-0.95750642 118.85717305 -0.91388094 110.28600059 -0.9375 101.6796875 C-0.93919693 100.97851177 -0.94089386 100.27733604 -0.94264221 99.55491257 C-0.95244157 95.86197131 -0.96601665 92.16905593 -0.98168945 88.47613525 C-1.01415926 80.68724469 -1.02613424 72.89832729 -1.03125 65.109375 C-1.03179886 64.33537983 -1.03234772 63.56138466 -1.03291321 62.76393509 C-1.04098445 41.8357095 -0.59942016 20.91912598 0 0 Z " fill="#FFFFFF" transform="translate(281,196)"/>
<path d="M0 0 C0.66 0 1.32 0 2 0 C1.55063217 4.16768398 1.08889017 8.33390946 0.625 12.5 C0.49867188 13.67304688 0.37234375 14.84609375 0.2421875 16.0546875 C-0.44785674 22.19608123 -1.30719955 28.05311843 -3 34 C-3.66 33.67 -4.32 33.34 -5 33 C-4.45047249 29.10366284 -3.89906184 25.20759719 -3.34594727 21.31176758 C-3.06623491 19.33884384 -2.78799031 17.3657122 -2.50976562 15.39257812 C-2.33251953 14.14541016 -2.15527344 12.89824219 -1.97265625 11.61328125 C-1.81031494 10.46641846 -1.64797363 9.31955566 -1.48071289 8.13793945 C-1.06185144 5.40374635 -0.56961186 2.70621045 0 0 Z " fill="#FFFFFF" transform="translate(497,479)"/>
<path d="M0 0 C0 0.99 0 1.98 0 3 C-5.94 3 -11.88 3 -18 3 C-18.33 2.34 -18.66 1.68 -19 1 C-16.77100213 0.83109082 -14.54179338 0.66496313 -12.3125 0.5 C-10.45044922 0.36078125 -10.45044922 0.36078125 -8.55078125 0.21875 C-5.68500671 0.04220063 -2.86900043 -0.04388528 0 0 Z " fill="#FFFFFF" transform="translate(291,347)"/>
<path d="M0 0 C0.66 0.33 1.32 0.66 2 1 C2.05411124 3.41696872 2.09372278 5.83271787 2.125 8.25 C2.14175781 8.93191406 2.15851562 9.61382812 2.17578125 10.31640625 C2.21213482 14.0608235 2.07944349 16.82352727 0 20 C-0.33 20 -0.66 20 -1 20 C-0.67 13.4 -0.34 6.8 0 0 Z " fill="#FFFFFF" transform="translate(625,298)"/>
<path d="M0 0 C1.98 0 3.96 0 6 0 C5.67 0.99 5.34 1.98 5 3 C2.03 2.505 2.03 2.505 -1 2 C-0.67 1.34 -0.34 0.68 0 0 Z " fill="#FFFFFF" transform="translate(275,351)"/>
<path d="M0 0 C1.32 0.33 2.64 0.66 4 1 C3.34 2.32 2.68 3.64 2 5 C1.34 5 0.68 5 0 5 C0 3.35 0 1.7 0 0 Z " fill="#FFFFFF" transform="translate(624,342)"/>
<path d="M0 0 C2.475 0.495 2.475 0.495 5 1 C4.67 1.66 4.34 2.32 4 3 C2.68 3 1.36 3 0 3 C0 2.01 0 1.02 0 0 Z " fill="#FFFFFF" transform="translate(479,192)"/>
<path d="M0 0 C1.32 0 2.64 0 4 0 C4 0.66 4 1.32 4 2 C3.01 2.33 2.02 2.66 1 3 C0.67 2.01 0.34 1.02 0 0 Z " fill="#FFFFFF" transform="translate(623,363)"/>
<path d="M0 0 C1.485 0.99 1.485 0.99 3 2 C1.68 2.33 0.36 2.66 -1 3 C-0.67 2.01 -0.34 1.02 0 0 Z " fill="#FFFFFF" transform="translate(274,365)"/>
<path d="M0 0 C1.32 0.33 2.64 0.66 4 1 C3.01 1.66 2.02 2.32 1 3 C0.67 2.01 0.34 1.02 0 0 Z " fill="#FFFFFF" transform="translate(273,360)"/>
</svg>
