<svg width="320" height="320" viewBox="0 0 320 320" fill="none" xmlns="http://www.w3.org/2000/svg">
  <defs>
    <linearGradient id="leafLeftGradient" x1="40" y1="10" x2="260" y2="310" gradientUnits="userSpaceOnUse">
      <stop stop-color="#1FA38B" />
      <stop offset="0.5" stop-color="#0D6A55" />
      <stop offset="1" stop-color="#06372A" />
    </linearGradient>
    <filter id="blur" x="-20" y="-20" width="360" height="360" filterUnits="userSpaceOnUse">
      <feGaussianBlur in="SourceGraphic" stdDeviation="4" />
    </filter>
  </defs>
  <path d="M40 280C40 280 36 196 78 132C120 68 210 32 260 20C260 20 240 80 222 124C196 188 136 254 40 280Z" fill="url(#leafLeftGradient)" filter="url(#blur)" opacity="0.9"/>
  <path d="M64 248C120 212 176 140 206 88" stroke="#9EEBC8" stroke-width="6" stroke-linecap="round" opacity="0.4"/>
  <path d="M96 204C130 192 170 150 192 116" stroke="#CFF9E4" stroke-width="4" stroke-linecap="round" opacity="0.35"/>
  <path d="M120 176C148 164 178 134 194 108" stroke="#CFF9E4" stroke-width="3" stroke-linecap="round" opacity="0.3"/>
</svg>
